<svg width="27" height="30" viewBox="0 0 27 30" fill="none" xmlns="http://www.w3.org/2000/svg">
<path d="M7.07379 13L17.6269 23.7782C17.8658 24.0223 18 24.3533 18 24.6985C18 25.0437 17.8658 25.3747 17.6269 25.6188C17.3879 25.8629 17.0639 26 16.726 26C16.3881 26 16.0641 25.8629 15.8252 25.6188L4.37381 13.9203C4.25532 13.7995 4.16131 13.6561 4.09716 13.4982C4.03302 13.3403 4 13.171 4 13C4 12.829 4.03302 12.6597 4.09716 12.5018C4.16131 12.3439 4.25532 12.2005 4.37381 12.0797L15.8252 0.381194C16.0641 0.137119 16.3881 0 16.726 0C17.0639 0 17.3879 0.137119 17.6269 0.381194C17.8658 0.625268 18 0.956304 18 1.30148C18 1.64665 17.8658 1.97769 17.6269 2.22176L7.07379 13Z" fill="white"/>
</svg>
