<svg width="47" height="47" viewBox="0 0 47 47" fill="none" xmlns="http://www.w3.org/2000/svg">
<path d="M23.1517 0C16.8641 0 16.0756 0.0266742 13.6062 0.139298C11.142 0.251716 9.45905 0.643143 7.98639 1.21536C6.46397 1.80702 5.17286 2.5987 3.88581 3.88574C2.5987 5.17279 1.80702 6.46404 1.21543 7.98646C0.643075 9.45905 0.251785 11.142 0.139229 13.6062C0.0266052 16.0756 0 16.8641 0 23.1517C0 29.4392 0.0266052 30.2277 0.139229 32.6971C0.251785 35.1613 0.643075 36.8442 1.21543 38.3168C1.80709 39.8393 2.59877 41.1304 3.88581 42.4176C5.17292 43.7046 6.46397 44.4963 7.98639 45.0879C9.45905 45.6602 11.142 46.0515 13.6062 46.164C16.0756 46.2766 16.8641 46.3033 23.1517 46.3033C29.4392 46.3033 30.2277 46.2766 32.6971 46.164C35.1613 46.0516 36.8442 45.6602 38.3168 45.0879C39.8393 44.4963 41.1304 43.7046 42.4176 42.4176C43.7046 41.1304 44.4963 39.8393 45.0879 38.3168C45.6602 36.8442 46.0516 35.1613 46.164 32.6971C46.2766 30.2277 46.3033 29.4392 46.3033 23.1517C46.3033 16.8641 46.2766 16.0756 46.164 13.6062C46.0516 11.142 45.6602 9.45905 45.0879 7.98646C44.4963 6.46404 43.7046 5.17279 42.4176 3.88574C41.1304 2.5987 39.8393 1.80702 38.3168 1.21536C36.8442 0.643143 35.1613 0.251716 32.6971 0.139298C30.2277 0.0266742 29.4392 0 23.1517 0ZM23.1517 4.17144C29.3334 4.17144 30.0656 4.19508 32.5069 4.30646C34.7642 4.40937 35.9901 4.78653 36.8058 5.10359C37.8865 5.52362 38.6577 6.02526 39.4678 6.83541C40.278 7.64556 40.7797 8.41683 41.1997 9.49745C41.5168 10.3132 41.8939 11.5392 41.9968 13.7964C42.1082 16.2377 42.1319 16.9699 42.1319 23.1517C42.1319 29.3334 42.1082 30.0656 41.9968 32.5069C41.8939 34.7642 41.5168 35.9901 41.1997 36.8058C40.7797 37.8865 40.278 38.6577 39.4678 39.4678C38.6577 40.278 37.8865 40.7797 36.8059 41.1997C35.9901 41.5168 34.7641 41.8939 32.5069 41.9968C30.066 42.1082 29.3339 42.1319 23.1517 42.1319C16.9694 42.1319 16.2374 42.1082 13.7964 41.9968C11.5391 41.8939 10.3132 41.5168 9.49752 41.1997C8.41677 40.7797 7.64556 40.278 6.83548 39.4678C6.02533 38.6577 5.52362 37.8865 5.10359 36.8059C4.78653 35.9901 4.40944 34.7641 4.30646 32.5069C4.19508 30.0656 4.17144 29.3334 4.17144 23.1517C4.17144 16.9699 4.19508 16.2377 4.30646 13.7964C4.40944 11.5391 4.78653 10.3132 5.10359 9.49752C5.52362 8.41677 6.02533 7.64556 6.83541 6.83548C7.64556 6.02526 8.41683 5.52362 9.49745 5.10359C10.3132 4.78653 11.5392 4.40937 13.7964 4.30646C16.2377 4.19508 16.9699 4.17144 23.1517 4.17144" fill="white"/>
<path d="M23.1505 30.869C18.8883 30.869 15.4332 27.4139 15.4332 23.1519C15.4332 18.8896 18.8883 15.4345 23.1505 15.4345C27.4125 15.4345 30.8676 18.8896 30.8676 23.1519C30.8676 27.4139 27.4125 30.869 23.1505 30.869ZM23.1505 11.2631C16.5844 11.2631 11.2617 16.5858 11.2617 23.1519C11.2617 29.7178 16.5844 35.0405 23.1505 35.0405C29.7164 35.0405 35.0391 29.7178 35.0391 23.1519C35.0391 16.5858 29.7164 11.2631 23.1505 11.2631ZM38.287 10.7934C38.287 12.3278 37.0431 13.5716 35.5088 13.5716C33.9745 13.5716 32.7306 12.3278 32.7306 10.7934C32.7306 9.25903 33.9745 8.01514 35.5088 8.01514C37.0431 8.01514 38.287 9.25903 38.287 10.7934Z" fill="white"/>
</svg>
