<svg width="53" height="53" viewBox="0 0 53 53" fill="none" xmlns="http://www.w3.org/2000/svg">
<path d="M20.8875 20.4245L22.4101 24.7895H19.365L20.8875 20.4245Z" fill="white"/>
<path fill-rule="evenodd" clip-rule="evenodd" d="M0 22.8875C0 11.2741 11.8618 1.86328 26.49 1.86328C41.1183 1.86328 53 11.2841 53 22.8975C53 34.5109 41.1382 43.9218 26.51 43.9218C24.9078 43.9218 23.3256 43.8117 21.803 43.5914C21.6857 43.6737 21.5262 43.7858 21.3314 43.9228C18.9652 45.5863 11.3803 50.919 10.608 51.03C10.608 51.03 10.2597 51.1601 9.97108 50.9899C9.6825 50.8197 9.73226 50.3692 9.73226 50.3692L12.4191 40.7081C4.95569 36.9738 0 30.3962 0 22.8875ZM11.8369 30.2158C11.8386 30.2158 11.8402 30.2158 11.8419 30.2158H11.832C11.8336 30.2158 11.8353 30.2158 11.8369 30.2158ZM10.3094 28.7441C10.3094 29.5534 10.9934 30.2132 11.8369 30.2158C12.6706 30.2131 13.3645 29.5434 13.3645 28.7441V19.6035H15.7527C16.5687 19.6035 17.2454 18.9328 17.2454 18.1018C17.2454 17.2708 16.5787 16.6001 15.7527 16.6001H7.92116C7.10516 16.6001 6.42848 17.2708 6.42848 18.1018C6.42848 18.9328 7.09521 19.6035 7.92116 19.6035H10.3094V28.7441ZM23.9724 29.515C24.1217 29.9355 24.6093 30.1958 25.2462 30.1958C25.5845 30.1958 25.9228 30.1357 26.2214 29.9955C26.6393 29.8153 27.0473 29.2647 26.5796 27.813L22.9275 18.1318C22.6788 17.391 21.8827 16.5901 20.8875 16.6101C19.8924 16.6301 19.1063 17.391 18.8476 18.1318L15.1955 27.813C14.7278 29.2647 15.1358 29.7953 15.5537 29.9955C15.8622 30.1257 16.1906 30.1958 16.5289 30.1958C17.1658 30.1958 17.6534 29.9355 17.8027 29.515L18.559 27.5127H23.2161L23.9724 29.515ZM27.5747 28.5939C27.5747 29.3648 28.2415 29.9955 29.0376 29.9955L33.9435 29.9655C34.7495 29.9655 35.4063 29.3348 35.4063 28.5639C35.4063 27.793 34.7396 27.1623 33.9435 27.1623H30.6994V18.1318C30.6994 17.2909 30.0028 16.5901 29.1371 16.5901C28.2713 16.5901 27.5747 17.2809 27.5747 18.1318V28.5939ZM35.9934 18.1419V28.654C35.9934 30.6986 39.0584 30.6217 39.0584 28.6239V25.2701L39.5858 24.7395L43.1682 29.515C43.6492 30.149 44.636 30.3159 45.3078 29.8153C45.9891 29.3376 46.1117 28.3237 45.6063 27.6728L41.8447 22.6671L45.3476 19.163C45.8763 18.6217 45.7446 17.7604 45.2381 17.2508C44.6989 16.7084 43.8084 16.6668 43.3374 17.1407L39.0584 21.4457V18.1419C39.0584 17.3009 38.3618 16.6001 37.5259 16.6001C36.69 16.6001 35.9934 17.2909 35.9934 18.1419Z" fill="white"/>
</svg>
